#define 8541a2265d094d4496a27c7efd8d1d003HXuUz6Y5UbhgZrc_width 72
#define 8541a2265d094d4496a27c7efd8d1d003HXuUz6Y5UbhgZrc_height 48
static char 8541a2265d094d4496a27c7efd8d1d003HXuUz6Y5UbhgZrc_bits[] = {
  0xFF, 0xFF, 0xFF, 0xFF, 0xFF, 0xFF, 0xFF, 0xFF, 0xFF, 0x00, 0x00, 0x00, 
  0x00, 0x00, 0x00, 0x00, 0x00, 0x00, 0x00, 0x00, 0x00, 0x00, 0x00, 0x00, 
  0x00, 0x00, 0x00, 0x00, 0x00, 0x00, 0x00, 0x00, 0x00, 0x00, 0x00, 0x00, 
  0x00, 0x00, 0x00, 0x00, 0x00, 0x00, 0x00, 0x00, 0x2C, 0x00, 0x00, 0x00, 
  0x00, 0x00, 0x00, 0x00, 0x00, 0x52, 0x00, 0x00, 0x00, 0x00, 0x00, 0x00, 
  0x00, 0x00, 0xA8, 0x00, 0x00, 0x00, 0x00, 0x00, 0x00, 0x00, 0x00, 0x1A, 
  0x10, 0x00, 0x00, 0x00, 0x02, 0x04, 0x00, 0x00, 0xAA, 0x78, 0x80, 0x07, 
  0xC0, 0xFF, 0x3F, 0xE0, 0x41, 0x44, 0x78, 0x80, 0x0F, 0xC0, 0xFF, 0x3F, 
  0xF8, 0x67, 0x18, 0xF0, 0x80, 0x07, 0xE0, 0xFF, 0x3F, 0xF8, 0xE7, 0x00, 
  0xE0, 0x00, 0x0F, 0xE0, 0xFF, 0x1F, 0xFC, 0xFF, 0x00, 0xF0, 0x01, 0x0F, 
  0xE0, 0x01, 0x1D, 0xFC, 0x7F, 0x00, 0xF0, 0x01, 0x1F, 0xE0, 0x81, 0x0F, 
  0x3E, 0x7C, 0x00, 0xE0, 0x01, 0x1E, 0xE0, 0x81, 0x07, 0x0E, 0x38, 0x00, 
  0xE0, 0x01, 0x17, 0xF0, 0xC0, 0x07, 0x0F, 0x30, 0x00, 0xE0, 0x03, 0x3F, 
  0xF0, 0xC0, 0x03, 0x07, 0x00, 0x00, 0xC0, 0x03, 0x3F, 0xF8, 0xE0, 0x03, 
  0x07, 0x00, 0x00, 0xC0, 0x83, 0x3F, 0x78, 0xF0, 0x01, 0x07, 0x00, 0x00, 
  0xC0, 0x83, 0x3F, 0x78, 0xB0, 0x00, 0x03, 0x00, 0x00, 0x80, 0x87, 0x7F, 
  0x78, 0xF8, 0x03, 0x03, 0x00, 0x00, 0x80, 0x87, 0x7B, 0x78, 0xFC, 0x07, 
  0x03, 0x00, 0x00, 0x80, 0xCF, 0x7B, 0x3C, 0xF8, 0x0F, 0x03, 0x00, 0x00, 
  0x80, 0xC7, 0xE3, 0x3E, 0xC8, 0x1F, 0x02, 0x00, 0x00, 0x00, 0xEF, 0xF2, 
  0x3C, 0x00, 0x1F, 0x02, 0x00, 0x00, 0x00, 0xEF, 0xF1, 0x1C, 0x00, 0x3E, 
  0x02, 0x00, 0x00, 0x00, 0xEF, 0xB1, 0x1F, 0x00, 0x3C, 0x00, 0x00, 0x00, 
  0x00, 0xFE, 0xE1, 0x1F, 0x00, 0x3C, 0x00, 0x00, 0x00, 0x00, 0xF6, 0xE0, 
  0x17, 0x00, 0x7C, 0x00, 0x00, 0x00, 0x00, 0xFE, 0xE0, 0x0F, 0x00, 0x3C, 
  0x00, 0x00, 0x00, 0x00, 0x7E, 0xC0, 0x0F, 0x00, 0x7C, 0x00, 0x00, 0x00, 
  0x00, 0xFC, 0xC0, 0x0F, 0x00, 0xFC, 0x00, 0x40, 0x00, 0x00, 0x7C, 0x80, 
  0x07, 0x03, 0xBC, 0x00, 0x60, 0x00, 0x00, 0x7C, 0xC0, 0xC7, 0x01, 0x3E, 
  0x03, 0xE0, 0x00, 0x00, 0x18, 0x80, 0xC7, 0x07, 0x1E, 0x03, 0x70, 0x00, 
  0x00, 0x38, 0x80, 0x82, 0x87, 0x1F, 0x0E, 0x7C, 0x00, 0x00, 0x38, 0x00, 
  0x03, 0xFF, 0x1D, 0xBC, 0x3F, 0x00, 0x00, 0x30, 0x00, 0x03, 0xFF, 0x0F, 
  0xFC, 0x1F, 0x00, 0x00, 0x10, 0x00, 0x03, 0xFC, 0x07, 0xF0, 0x1F, 0x00, 
  0x00, 0x10, 0x00, 0x01, 0xF8, 0x01, 0xE0, 0x07, 0x00, 0x00, 0x00, 0x00, 
  0x00, 0x00, 0x00, 0x00, 0x00, 0x00, 0x00, 0x00, 0x00, 0x00, 0x00, 0x00, 
  0x00, 0x00, 0x00, 0x00, 0x00, 0x00, 0x00, 0x00, 0x00, 0x00, 0x00, 0x00, 
  0x00, 0x00, 0x00, 0x00, 0x00, 0x00, 0x00, 0x00, 0x00, 0x00, 0x00, 0x00, 
  0x00, 0x00, 0x00, 0x00, 0x00, 0x00, 0x00, 0x00, 0x00, 0x00, 0x00, 0x00, 
  0x00, 0x00, 0x00, 0xFF, 0xFF, 0xFF, 0xFF, 0xFF, 0xFF, 0xFF, 0xFF, 0xFF, 
  };
