/* XPM */
static char *_cdbcf9c4fb446a0a2d0cfed75aaf208uVSNFUT4TQHHXd7N[] = {
/* columns rows colors chars-per-pixel */
"72 48 47 1 ",
"  c black",
". c #0C0C0C",
"X c gray11",
"o c #202020",
"O c #2C2C2C",
"+ c #3C3C3C",
"@ c #444444",
"# c #4C4C4C",
"$ c #5D5D5D",
"% c #6D6D6D",
"& c gray46",
"* c gray49",
"= c #0B439D",
"- c #0B449D",
"; c #0C479D",
": c #0F479F",
"> c #174DA2",
", c #2659A8",
"< c #3664AE",
"1 c #3968B1",
"2 c #4570B4",
"3 c #547CBA",
"4 c #738FBD",
"5 c #6488C1",
"6 c #688AC3",
"7 c #7394C7",
"8 c #898989",
"9 c #8D8D8D",
"0 c #9D9D9D",
"q c #AEAEAE",
"w c gray73",
"e c gray",
"r c #839FCD",
"t c #92ABD3",
"y c #93ABD4",
"u c #A1B7D9",
"i c #A0B4DA",
"p c #B1C3E0",
"a c #B8C6E4",
"s c #CECECE",
"d c gray87",
"f c #C1CFE6",
"g c #D0DBEC",
"h c #DFE6F2",
"j c #EEEEEE",
"k c #EEF2F8",
"l c white",
/* pixels */
"                                                                        ",
"llllllllllllllllllllllllllllllllllllllllllllllllllllllllllllllllllllllll",
"llllllllllllllllllllllllllllllllllllllllllllllllllllllllllllllllllllllll",
"llllllllllllllllllllllllllllllllllllllllllllllllllllllllllllllllllllllll",
"llllllllllllllllllllllllllllllllllllllllllllllllllllllllllllllllll888&wl",
"lllllllllllllllllllllllllllllllllllllllllllllllllllllllllllllllll8s88s8s",
"lllllllllllllllllllllllllllllllllllllllllllllllllllllllllllllllll8l@j@l8",
"lllllllllllllllllllllllllllllllllllllllllllllllllllllllllllllllll8lo@wl8",
"llkffffkllllllhfffflllllllllllayyyufffffffffffklllllllllllllllsll&l@s@d8",
"llh;;;;ullllllg;;;;fllllllllll;;;;;-;;;;;;;;;;fllllls# .$dllljOllw8llj&j",
"lll,;;;5lllllll>;;;7lllllllllf=;;;;;;;;;;;;;;;fllll0      0ll* llls888jl",
"lll7;;;>lllllll5;;;,lllllllll7=;;;;;;;;;;;;;;2lllls        ej. ellllllll",
"lllf;;;;gllllllu;;;;hllllllll<=;;;;;;;;;;;;;;fllllX        X%  0llllllll",
"llll>;;;7llllllk;;;;tlllllllh;=;;6lllllp;;;;5llll0    O*%X    .jllllllll",
"llll3;;;<lllllll2;;;3lllllllt;=;-klllll,;;;>kllll+   0lllj$   *lllllllll",
"llllu;;;;hllllll5;;;;kllllll3;=;1lllllr;;;;rllllj   0llllll$ .jlllllllll",
"llllk;;;;ullllll>;;;;pllllll;;;;tllllk>;;;,lllllq  $llllllllO*llllllllll",
"lllll<;;;3lllllg;;;;;5lllllp;;;;gllll5;;;;plllll*  dllllllllsjllllllllll",
"lllllt;;;;lllllr;;;;;,lllll5;;;,llllf;;;;2llllll# #lllllllllllllllllllll",
"lllllg;;;;pllll<;;;;;;gllll,;;;7llll2;;;;hllllll+ 0lllllllllllllllllllll",
"llllll,;;;7lllh;;;;;;;rlllg;;;;plllu;;;;5lllllll+ jlllllllllllllllllllll",
"llllll5;;;,lllu;;;>;;;<lllt;;;>lllk,;;;;;2glllll+Xllllllllllllllllllllll",
"llllllp;;;;gll3;;;r;;;;kll<;;;3lllt;;;;;;;;ullll++llllllllllllllllllllll",
"lllllll;;;;tll>;;;h3;;;ulk;;;;ulllr;;;;;;;;;ulll*+llllllllllllllllllllll",
"lllllll3;;;2lp;;;<lt;;;3lu;;;;hlllfrrr<;;;;;>kll0+llllllllllllllllllllll",
"lllllllu;;;;k7;;;7lh;;;>l5;;;<lllllllllf>;;;;rlld+llllllllllllllllllllll",
"lllllllh;;;;u,;;;gll,;;;f>;;;rllllllllllg;;;;>lll*llllllllllllllllllllll",
"llllllll<;;;<;;;>lll7;;;<;;;;glllllllllll5;;;;gllellllllllllllllllllllll",
"llllllll7;;;;;;;5lllf;;;;;;;,llllllllllllp;;;;tlllllllllllllllllllllllll",
"llllllllg;;;;;;;pllll>;;;;;;5llllllllllllg;;;;rlllllllllllllllllllllllll",
"lllllllll>;;;;;;kllll5;;;;;;plllllllllllll;;;;rlllllllllllllllllllllllll",
"lllllllll5;;;;;3lllllu;;;;;;kllllllllllllh;;;;4elllllllllllllljlllllllll",
"lllllllllp;;;;;tlllllk;;;;;3lllllllllllllf;;;;r#llllllllllllll+dllllllll",
"lllllllllk;;;;;hllllll2;;;;tlllp3<lllllll7;;;;f9*llllllllllll9 qllllllll",
"llllllllll2;;;<lllllllt;;;;hll<;;;plllllk,;;;;kd 0lllllllllls. *llllllll",
"llllllllllt;;;7lllllllh;;;<lll5;;;>gllll7;;;;3ll% 0lllllllls.  0llllllll",
"llllllllllh;;;fllllllll,;;7lllh;;;;>rfg5;;;;;fllj. 9llllll9.  Olllllllll",
"lllllllllll,;>lllllllll7;;fllllr;;;;;;;;;;;;3llllq  X%qq%X   .dlllllllll",
"lllllllllll7;5lllllllllf;>llllll2;;;;;;;;;;<klllll0         .sllllllllll",
"lllllllllllf;ullllllllll>5llllllk5;;;;;;;;<klllllll0.      Xslllllllllll",
"llllllllllll>kllllllllll5ullllllllf3;;;;<ulllllllllld%O  +9jllllllllllll",
"llllllllllllllllllllllllllllllllllllllllllllllllllllllllllllllllllllllll",
"llllllllllllllllllllllllllllllllllllllllllllllllllllllllllllllllllllllll",
"llllllllllllllllllllllllllllllllllllllllllllllllllllllllllllllllllllllll",
"llllllllllllllllllllllllllllllllllllllllllllllllllllllllllllllllllllllll",
"llllllllllllllllllllllllllllllllllllllllllllllllllllllllllllllllllllllll",
"llllllllllllllllllllllllllllllllllllllllllllllllllllllllllllllllllllllll",
"                                                                        "
};
